<svg width="30" height="30" viewBox="0 0 30 30" fill="none" xmlns="http://www.w3.org/2000/svg">
<g id="Bag_fill">
<path id="Vector 9" d="M10 9.91748L10 8.71905C10 5.95763 12.2386 3.71905 15 3.71905V3.71905C17.7614 3.71905 20 5.95763 20 8.71905L20 9.91748" stroke="white" stroke-width="2" stroke-linecap="round"/>
<path id="Subtract" fill-rule="evenodd" clip-rule="evenodd" d="M4.33579 9.26352C3.75 9.84931 3.75 10.7921 3.75 12.6777V19.273C3.75 23.0443 3.75 24.9299 4.92157 26.1015C6.09315 27.273 7.97876 27.273 11.75 27.273H18.25C22.0212 27.273 23.9069 27.273 25.0784 26.1015C26.25 24.9299 26.25 23.0443 26.25 19.273V12.6777C26.25 10.7921 26.25 9.84931 25.6642 9.26352C25.0784 8.67773 24.1356 8.67773 22.25 8.67773H7.75C5.86438 8.67773 4.92157 8.67773 4.33579 9.26352ZM12.25 14.8762C12.25 14.3239 11.8023 13.8762 11.25 13.8762C10.6977 13.8762 10.25 14.3239 10.25 14.8762V17.3555C10.25 17.9078 10.6977 18.3555 11.25 18.3555C11.8023 18.3555 12.25 17.9078 12.25 17.3555V14.8762ZM19.75 14.8762C19.75 14.3239 19.3023 13.8762 18.75 13.8762C18.1977 13.8762 17.75 14.3239 17.75 14.8762V17.3555C17.75 17.9078 18.1977 18.3555 18.75 18.3555C19.3023 18.3555 19.75 17.9078 19.75 17.3555V14.8762Z" fill="white"/>
</g>
</svg>
