<svg width="66" height="65" viewBox="0 0 66 65" fill="none" xmlns="http://www.w3.org/2000/svg">
<g id="Group_fill">
<ellipse id="Ellipse 46" cx="32.8812" cy="24.5401" rx="10.7464" ry="10.7464" fill="white"/>
<ellipse id="Ellipse 47" cx="46.3157" cy="24.5401" rx="8.0598" ry="8.05979" fill="white"/>
<ellipse id="Ellipse 48" cx="19.4485" cy="24.5401" rx="8.0598" ry="8.05979" fill="white"/>
<path id="Subtract" fill-rule="evenodd" clip-rule="evenodd" d="M47.8413 48.7195H55.9556C56.5472 48.7195 57.0032 48.2155 56.9017 47.6326C56.3452 44.4357 54.0745 35.2865 46.3142 35.2865C43.9336 35.2865 42.0697 36.1475 40.6133 37.4335C44.664 40.0615 46.7584 44.6633 47.8413 48.7195Z" fill="white"/>
<path id="Subtract_2" fill-rule="evenodd" clip-rule="evenodd" d="M25.1503 37.4334C23.694 36.1475 21.83 35.2865 19.4494 35.2865C11.6892 35.2865 9.41842 44.4357 8.86184 47.6326C8.76037 48.2155 9.21638 48.7195 9.808 48.7195H17.9222C19.0052 44.6633 21.0996 40.0615 25.1503 37.4334Z" fill="white"/>
<path id="Rectangle 4160" d="M32.8822 37.9731C44.2841 37.9731 46.0081 49.5865 46.2688 53.0985C46.3096 53.6493 45.8675 54.0927 45.3152 54.0927H20.4492C19.8969 54.0927 19.4548 53.6493 19.4957 53.0985C19.7563 49.5865 21.4803 37.9731 32.8822 37.9731Z" fill="white"/>
</g>
</svg>
