<svg width="16" height="30" viewBox="0 0 16 30" fill="none" xmlns="http://www.w3.org/2000/svg">
<path id="Vector" d="M11.6227 13.4307L5.62141 11.6123C4.92681 11.4052 4.44338 10.7319 4.44338 9.98384C4.44338 9.04588 5.17687 8.2863 6.08262 8.2863H9.76674C10.4447 8.2863 11.1115 8.49921 11.6671 8.89051C12.0061 9.12644 12.4618 9.0689 12.7507 8.77542L14.6845 6.81894C15.079 6.42188 15.0234 5.76013 14.5844 5.40911C13.223 4.30427 11.5227 3.68856 9.77785 3.6828V0.9207C9.77785 0.414315 9.37777 0 8.88877 0H7.11061C6.62162 0 6.22153 0.414315 6.22153 0.9207V3.6828H6.08262C2.54297 3.6828 -0.302089 6.83044 0.0257593 10.565C0.259143 13.2178 2.21512 15.3757 4.68232 16.1238L10.378 17.8501C11.0726 18.063 11.556 18.7305 11.556 19.4786C11.556 20.4165 10.8225 21.1761 9.91677 21.1761H6.23265C5.55472 21.1761 4.88792 20.9632 4.33224 20.5719C3.99328 20.336 3.53762 20.3935 3.24867 20.687L1.31493 22.6435C0.920396 23.0405 0.975963 23.7023 1.41495 24.0533C2.77635 25.1581 4.47672 25.7738 6.22153 25.7796V28.5417C6.22153 29.0481 6.62162 29.4624 7.11061 29.4624H8.88877C9.37777 29.4624 9.77785 29.0481 9.77785 28.5417V25.7681C12.3673 25.7163 14.7956 24.1223 15.6513 21.5847C16.846 18.04 14.8401 14.4032 11.6227 13.4307Z" fill="white"/>
</svg>
