<svg width="31" height="31" viewBox="0 0 31 31" fill="none" xmlns="http://www.w3.org/2000/svg">
<g id="Bag_fill">
<path id="Vector 9" d="M10.6445 10.7524L10.6445 9.58617C10.6445 6.80698 12.8975 4.55401 15.6767 4.55401V4.55401C18.4559 4.55401 20.7088 6.80698 20.7088 9.58617L20.7088 10.7524" stroke="#06112E" stroke-width="2" stroke-linecap="round"/>
<path id="Subtract" fill-rule="evenodd" clip-rule="evenodd" d="M4.94126 10.0985C4.35547 10.6843 4.35547 11.6271 4.35547 13.5127V20.108C4.35547 23.8792 4.35547 25.7648 5.52704 26.9364C6.69861 28.108 8.58423 28.108 12.3555 28.108H19.0002C22.7714 28.108 24.657 28.108 25.8286 26.9364C27.0002 25.7648 27.0002 23.8792 27.0002 20.108V13.5127C27.0002 11.6271 27.0002 10.6843 26.4144 10.0985C25.8286 9.5127 24.8858 9.5127 23.0002 9.5127H8.35547C6.46985 9.5127 5.52704 9.5127 4.94126 10.0985ZM12.9037 15.7111C12.9037 15.1588 12.456 14.7111 11.9037 14.7111C11.3514 14.7111 10.9037 15.1588 10.9037 15.7111V18.1905C10.9037 18.7428 11.3514 19.1905 11.9037 19.1905C12.456 19.1905 12.9037 18.7428 12.9037 18.1905V15.7111ZM20.4519 15.7111C20.4519 15.1588 20.0042 14.7111 19.4519 14.7111C18.8996 14.7111 18.4519 15.1588 18.4519 15.7111V18.1905C18.4519 18.7428 18.8996 19.1905 19.4519 19.1905C20.0042 19.1905 20.4519 18.7428 20.4519 18.1905V15.7111Z" fill="#06112E"/>
</g>
</svg>
