<svg width="30" height="30" viewBox="0 0 30 30" fill="none" xmlns="http://www.w3.org/2000/svg">
<g id="Question_fill">
<path id="Subtract" fill-rule="evenodd" clip-rule="evenodd" d="M26.25 14.8762C26.25 21.0381 21.2132 26.0334 15 26.0334C8.7868 26.0334 3.75 21.0381 3.75 14.8762C3.75 8.71423 8.7868 3.71899 15 3.71899C21.2132 3.71899 26.25 8.71423 26.25 14.8762ZM16.25 22.3143C16.25 22.999 15.6904 23.554 15 23.554C14.3096 23.554 13.75 22.999 13.75 22.3143C13.75 21.6296 14.3096 21.0746 15 21.0746C15.6904 21.0746 16.25 21.6296 16.25 22.3143ZM14.9691 6.43805C12.3628 6.43805 10.25 8.55085 10.25 11.1571H12.25C12.25 9.65542 13.4674 8.43805 14.9691 8.43805H15.1518C16.5867 8.43805 17.75 9.60131 17.75 11.0363V11.6617C17.75 12.4091 17.2708 13.0723 16.5611 13.3069C15.0324 13.8122 14 15.2409 14 16.851V19.8349H16V16.851C16 16.1036 16.4792 15.4404 17.1889 15.2058C18.7176 14.7004 19.75 13.2718 19.75 11.6617V11.0363C19.75 8.49675 17.6913 6.43805 15.1518 6.43805H14.9691Z" fill="#06112E"/>
</g>
</svg>
