<svg width="30" height="31" viewBox="0 0 30 31" fill="none" xmlns="http://www.w3.org/2000/svg">
<g id="Arhive_load_fill">
<path id="Intersect" fill-rule="evenodd" clip-rule="evenodd" d="M26.25 14.4353V22.0718C26.25 24.9003 26.25 26.3145 25.3713 27.1932C24.4926 28.0719 23.0784 28.0719 20.25 28.0719H9.75C6.92157 28.0719 5.50736 28.0719 4.62868 27.1932C3.75 26.3145 3.75 24.9003 3.75 22.0719V14.4353C3.75 16.0493 3.75 16.8563 4.18868 17.4043C4.2807 17.5192 4.38514 17.6237 4.50009 17.7157C5.04806 18.1544 5.85506 18.1544 7.46906 18.1544H8.56227C9.25627 18.1544 9.60327 18.1544 9.86483 18.3424C10.1264 18.5304 10.2369 18.8593 10.458 19.5172L10.458 19.5172L10.4581 19.5172L10.7919 20.5106L10.792 20.5106L10.792 20.5106C11.0131 21.1685 11.1236 21.4974 11.3852 21.6854C11.6467 21.8734 11.9937 21.8734 12.6877 21.8734H17.3123C18.0063 21.8734 18.3533 21.8734 18.6148 21.6854C18.8764 21.4974 18.9869 21.1684 19.2081 20.5106L19.5419 19.5172C19.7631 18.8593 19.8736 18.5304 20.1352 18.3424C20.3967 18.1544 20.7437 18.1544 21.4377 18.1544H22.5309C24.1449 18.1544 24.9519 18.1544 25.4999 17.7157C25.6149 17.6237 25.7193 17.5192 25.8113 17.4043C26.25 16.8563 26.25 16.0493 26.25 14.4353Z" fill="#06112E"/>
<path id="Rectangle 3" d="M20 8.23706H22.25C24.1356 8.23706 25.0784 8.23706 25.6642 8.82285C26.25 9.40863 26.25 10.3514 26.25 12.2371V24.072C26.25 25.9577 26.25 26.9005 25.6642 27.4863C25.0784 28.072 24.1356 28.072 22.25 28.072H7.75C5.86438 28.072 4.92157 28.072 4.33579 27.4863C3.75 26.9005 3.75 25.9577 3.75 24.072V12.2371C3.75 10.3514 3.75 9.40863 4.33579 8.82285C4.92157 8.23706 5.86438 8.23706 7.75 8.23706H10" stroke="#06112E" stroke-width="2"/>
<path id="Vector 9" d="M10 13.1957L15 16.9148M15 16.9148L20 13.1957M15 16.9148L15 4.51793" stroke="#06112E" stroke-width="2"/>
</g>
</svg>
