<svg width="25" height="25" viewBox="0 0 25 25" fill="none" xmlns="http://www.w3.org/2000/svg">
<g id="&#240;&#159;&#166;&#134; icon &#34;discount shape&#34;">
<path id="Vector" d="M24.199 11.1045L22.3879 9.31974C22.078 9.01445 21.8278 8.41562 21.8278 7.99291V5.45666C21.8278 4.42337 20.9699 3.57795 19.9213 3.57795H17.3594C16.9305 3.57795 16.3227 3.33137 16.0129 3.02608L14.2017 1.24131C13.463 0.513313 12.2476 0.513313 11.5088 1.24131L9.67378 3.02608C9.37589 3.33137 8.76819 3.57795 8.3273 3.57795H5.76542C4.71684 3.57795 3.85891 4.42337 3.85891 5.45666V7.98116C3.85891 8.40387 3.60868 9.00271 3.29887 9.308L1.48768 11.0928C0.7489 11.8208 0.7489 13.0184 1.48768 13.7464L3.29887 15.5312C3.60868 15.8365 3.85891 16.4353 3.85891 16.858V19.3825C3.85891 20.4158 4.71684 21.2612 5.76542 21.2612H8.3273C8.75627 21.2612 9.36397 21.5078 9.67378 21.8131L11.485 23.5979C12.2237 24.3259 13.4391 24.3259 14.1779 23.5979L15.9891 21.8131C16.2989 21.5078 16.9066 21.2612 17.3356 21.2612H19.8975C20.9461 21.2612 21.804 20.4158 21.804 19.3825V16.858C21.804 16.4353 22.0542 15.8365 22.364 15.5312L24.1752 13.7464C24.9497 13.0302 24.9497 11.8325 24.199 11.1045ZM8.07707 8.90878C8.07707 8.26297 8.61328 7.73458 9.26865 7.73458C9.92401 7.73458 10.4602 8.26297 10.4602 8.90878C10.4602 9.55458 9.93593 10.083 9.26865 10.083C8.61328 10.083 8.07707 9.55458 8.07707 8.90878ZM9.90018 16.5762C9.72144 16.7524 9.49505 16.8345 9.26865 16.8345C9.04225 16.8345 8.81585 16.7524 8.63711 16.5762C8.29156 16.2357 8.29156 15.6721 8.63711 15.3316L15.7865 8.28645C16.1321 7.94594 16.7041 7.94594 17.0496 8.28645C17.3952 8.62697 17.3952 9.19058 17.0496 9.5311L9.90018 16.5762ZM16.4181 17.1281C15.7508 17.1281 15.2146 16.5997 15.2146 15.9539C15.2146 15.3081 15.7508 14.7797 16.4062 14.7797C17.0615 14.7797 17.5977 15.3081 17.5977 15.9539C17.5977 16.5997 17.0734 17.1281 16.4181 17.1281Z" fill="#06112E"/>
</g>
</svg>
