<svg width="30" height="31" viewBox="0 0 30 31" fill="none" xmlns="http://www.w3.org/2000/svg">
<g id="Add_round_fill">
<path id="Subtract" fill-rule="evenodd" clip-rule="evenodd" d="M26.25 15.7277C26.25 21.8897 21.2132 26.8849 15 26.8849C8.7868 26.8849 3.75 21.8897 3.75 15.7277C3.75 9.5658 8.7868 4.57056 15 4.57056C21.2132 4.57056 26.25 9.5658 26.25 15.7277ZM15 22.9262C14.4477 22.9262 14 22.4785 14 21.9262V16.7277H8.75C8.19772 16.7277 7.75 16.28 7.75 15.7277C7.75 15.1755 8.19772 14.7277 8.75 14.7277H14V9.5293C14 8.97702 14.4477 8.5293 15 8.5293C15.5523 8.5293 16 8.97702 16 9.5293V14.7277H21.25C21.8023 14.7277 22.25 15.1755 22.25 15.7277C22.25 16.28 21.8023 16.7277 21.25 16.7277H16V21.9262C16 22.4785 15.5523 22.9262 15 22.9262Z" fill="#06112E"/>
</g>
</svg>
