<svg width="31" height="28" viewBox="0 0 31 28" fill="none" xmlns="http://www.w3.org/2000/svg">
<path id="Vector" d="M28.4231 16.3424L30.9673 5.06128C31.151 4.24676 30.5367 3.47112 29.7078 3.47112H8.56849L8.07518 1.04079C7.95226 0.435029 7.42332 0 6.80972 0H1.29167C0.57829 0 0 0.582769 0 1.30167V2.16945C0 2.88835 0.57829 3.47112 1.29167 3.47112H5.05273L8.83344 22.0978C7.92895 22.622 7.31945 23.6048 7.31945 24.7317C7.31945 26.4092 8.66881 27.769 10.3333 27.769C11.9979 27.769 13.3472 26.4092 13.3472 24.7317C13.3472 23.8816 13.0003 23.1136 12.4418 22.5623H23.7249C23.1664 23.1136 22.8194 23.8816 22.8194 24.7317C22.8194 26.4092 24.1688 27.769 25.8333 27.769C27.4979 27.769 28.8472 26.4092 28.8472 24.7317C28.8472 23.5292 28.1536 22.4901 27.1477 21.998L27.4446 20.6813C27.6283 19.8668 27.0139 19.0912 26.185 19.0912H11.7389L11.3867 17.3556H27.1636C27.7667 17.3556 28.2895 16.9351 28.4231 16.3424Z" fill="#06112E"/>
</svg>
