<svg width="30" height="31" viewBox="0 0 30 31" fill="none" xmlns="http://www.w3.org/2000/svg">
<g id="Wallet_fill">
<path id="Vector 57" d="M25 6.27398C25.5523 6.27398 26 5.82626 26 5.27398C26 4.72169 25.5523 4.27398 25 4.27398V6.27398ZM6.84923 6.27398L25 6.27398V4.27398L6.84923 4.27398V6.27398ZM6.84923 12.4724L16.875 12.4724V10.4724L6.84923 10.4724V12.4724ZM4.75001 8.3732C4.75001 7.21383 5.68986 6.27398 6.84923 6.27398V4.27398C4.58529 4.27398 2.75001 6.10926 2.75001 8.3732H4.75001ZM2.75001 8.3732C2.75001 10.6371 4.58529 12.4724 6.84923 12.4724V10.4724C5.68986 10.4724 4.75001 9.53256 4.75001 8.3732H2.75001Z" fill="#06112E"/>
<path id="Vector 59" d="M3.75 15.1914L3.75 8.37313" stroke="#06112E" stroke-width="2"/>
<path id="Vector 58" d="M26.3107 26.4093C26.5655 26.1545 26.6649 25.8403 26.7089 25.5125C26.75 25.2067 26.75 24.8248 26.75 24.3815C26.75 24.3706 26.75 24.3596 26.75 24.3486V22.6296V22.1296H26.25H22.4691C20.6912 22.1296 19.25 20.6884 19.25 18.9105C19.25 17.1327 20.6912 15.6915 22.4691 15.6915H26.25H26.75V15.1915L26.75 13.4724L26.75 13.4395C26.75 12.9962 26.75 12.6143 26.7089 12.3085C26.6649 11.9807 26.5655 11.6666 26.3107 11.4117C26.0558 11.1569 25.7417 11.0575 25.4139 11.0135C25.1081 10.9723 24.7262 10.9724 24.2829 10.9724L24.25 10.9724L3.75 10.9724H3.25V11.4724L3.25 24.3486V24.3816C3.24998 24.8248 3.24995 25.2067 3.29107 25.5125C3.33514 25.8403 3.43451 26.1545 3.68934 26.4093L3.68934 26.4093C3.94417 26.6641 4.25835 26.7635 4.58611 26.8076C4.89193 26.8487 5.27384 26.8487 5.71708 26.8486L5.75 26.8486L24.25 26.8486C24.261 26.8486 24.272 26.8486 24.2829 26.8486C24.7262 26.8487 25.1081 26.8487 25.4139 26.8076C25.7417 26.7635 26.0558 26.6641 26.3107 26.4093ZM26.3107 26.4093L25.9571 26.0557M26.3107 26.4093L25.9571 26.0557M25.9571 26.0557C25.6642 26.3486 25.1928 26.3486 24.25 26.3486L5.75 26.3486C4.80719 26.3486 4.33579 26.3486 4.04289 26.0557C3.75 25.7628 3.75 25.2914 3.75 24.3486L3.75 11.9724V11.4724H4.25L24.25 11.4724C25.1928 11.4724 25.6642 11.4724 25.9571 11.7653C26.25 12.0582 26.25 12.5296 26.25 13.4724V14.6915V15.1915H25.75H22.4691C20.4151 15.1915 18.75 16.8565 18.75 18.9105C18.75 20.9645 20.4151 22.6296 22.4691 22.6296H25.75H26.25V23.1296V24.3486C26.25 25.2914 26.25 25.7628 25.9571 26.0557Z" fill="#06112E" stroke="#06112E"/>
</g>
</svg>
