<svg width="36" height="36" viewBox="0 0 36 36" fill="none" xmlns="http://www.w3.org/2000/svg">
<g id="Group_fill">
<ellipse id="Ellipse 46" cx="18" cy="13.3887" rx="6" ry="5.95049" fill="#06112E"/>
<ellipse id="Ellipse 47" cx="25.5" cy="13.3887" rx="4.5" ry="4.46287" fill="#06112E"/>
<ellipse id="Ellipse 48" cx="10.5" cy="13.3887" rx="4.5" ry="4.46287" fill="#06112E"/>
<path id="Subtract" fill-rule="evenodd" clip-rule="evenodd" d="M26.352 26.7772H30.3935C30.9854 26.7772 31.4395 26.2685 31.3162 25.6896C30.8766 23.6243 29.4842 19.3391 25.4994 19.3391C24.1703 19.3391 23.1295 19.8158 22.3164 20.5279C24.578 21.9831 25.7474 24.5313 26.352 26.7772Z" fill="#06112E"/>
<path id="Subtract_2" fill-rule="evenodd" clip-rule="evenodd" d="M13.6842 20.5279C12.8711 19.8158 11.8304 19.3391 10.5012 19.3391C6.5164 19.3391 5.12403 23.6242 4.68437 25.6895C4.56111 26.2685 5.01517 26.7772 5.60712 26.7772H9.64857C10.2532 24.5312 11.4226 21.9831 13.6842 20.5279Z" fill="#06112E"/>
<path id="Rectangle 4160" d="M18 20.8267C23.9435 20.8267 25.177 26.432 25.433 28.7587C25.4934 29.3076 25.0523 29.7524 24.5 29.7524H11.5C10.9477 29.7524 10.5066 29.3076 10.567 28.7587C10.823 26.432 12.0565 20.8267 18 20.8267Z" fill="#06112E"/>
</g>
</svg>
