<svg width="26" height="26" viewBox="0 0 26 26" fill="none" xmlns="http://www.w3.org/2000/svg">
<g id="&#240;&#159;&#166;&#134; icon &#34;emblem marketing&#34;">
<path id="Vector" d="M2.01074 0C0.898176 0 0 0.890766 0 1.99415V23.1576C0 24.2609 0.898176 25.1517 2.01074 25.1517H23.3502C24.4628 25.1517 25.3609 24.2609 25.3609 23.1576V1.99415C25.3609 0.890766 24.4628 0 23.3502 0H2.01074ZM17.8656 5.16781H20.8774C21.4728 5.16781 21.9555 5.64652 21.9555 6.23701V18.6092C21.9555 19.1997 21.4728 19.6784 20.8774 19.6784H17.8656C17.2702 19.6784 16.7875 19.1997 16.7875 18.6092V6.23701C16.7875 5.64652 17.2702 5.16781 17.8656 5.16781ZM11.1746 10.1065H14.1864C14.7818 10.1065 15.2645 10.5852 15.2645 11.1757V18.6092C15.2645 19.1997 14.7818 19.6784 14.1864 19.6784H11.1746C10.5792 19.6784 10.0965 19.1997 10.0965 18.6092V11.1757C10.0965 10.5852 10.5792 10.1065 11.1746 10.1065ZM4.48351 14.273H7.49534C8.09075 14.273 8.57344 14.7517 8.57344 15.3422V18.6092C8.57344 19.1997 8.09075 19.6784 7.49534 19.6784H4.48351C3.88811 19.6784 3.40542 19.1997 3.40542 18.6092V15.3422C3.40542 14.7517 3.88811 14.273 4.48351 14.273ZM3.73056 21.0446H21.6304C21.8088 21.0446 21.9555 21.1816 21.9555 21.3586V21.8677C21.9555 22.0447 21.8088 22.1902 21.6304 22.1902H3.73056C3.5521 22.1902 3.40542 22.0447 3.40542 21.8677V21.3586C3.40542 21.1816 3.5521 21.0446 3.73056 21.0446Z" fill="#06112E"/>
</g>
</svg>
