<svg width="30" height="31" viewBox="0 0 30 31" fill="none" xmlns="http://www.w3.org/2000/svg">
<g id="Chart_alt_fill">
<path id="Subtract" fill-rule="evenodd" clip-rule="evenodd" d="M3.37868 3.8777C2.5 4.75638 2.5 6.1706 2.5 8.99903V21.7928C2.5 24.6212 2.5 26.0354 3.37868 26.9141C4.25736 27.7928 5.67157 27.7928 8.5 27.7928H21.5C24.3284 27.7928 25.7426 27.7928 26.6213 26.9141C27.5 26.0354 27.5 24.6212 27.5 21.7927V8.99902C27.5 6.1706 27.5 4.75638 26.6213 3.8777C25.7426 2.99902 24.3284 2.99902 21.5 2.99902H8.5C5.67157 2.99902 4.25736 2.99902 3.37868 3.8777ZM22.0799 12.2347C22.388 11.7764 22.2662 11.155 21.8079 10.8469C21.3495 10.5388 20.7282 10.6606 20.4201 11.1189L16.3735 17.1387L15.4123 15.2321C14.7239 13.8665 12.8198 13.7475 11.9666 15.0167L7.92008 21.0364C7.61197 21.4948 7.73377 22.1161 8.19212 22.4242C8.65047 22.7324 9.27181 22.6106 9.57992 22.1522L13.6265 16.1325L14.5877 18.039C15.2761 19.4046 17.1802 19.5236 18.0334 18.2544L22.0799 12.2347Z" fill="#06112E"/>
</g>
</svg>
