<svg width="41" height="40" viewBox="0 0 41 40" fill="none" xmlns="http://www.w3.org/2000/svg">
<path id="Vector" d="M30.8 40.0002C22.6346 39.9897 14.8066 36.7413 9.0328 30.9674C3.25897 25.1936 0.0105838 17.3657 0 9.20023C0 6.76024 0.969283 4.42018 2.69462 2.69485C4.41995 0.969512 6.76001 0.00022859 9.2 0.00022859C9.71668 -0.00370701 10.2325 0.0431852 10.74 0.140228C11.2306 0.212829 11.7129 0.333408 12.18 0.500229C12.5085 0.615487 12.8012 0.814495 13.0292 1.07757C13.2572 1.34065 13.4126 1.65869 13.48 2.00023L16.22 14.0002C16.2939 14.326 16.285 14.665 16.1941 14.9864C16.1033 15.3078 15.9334 15.6013 15.7 15.8402C15.44 16.1202 15.42 16.1402 12.96 17.4202C14.93 21.7419 18.3864 25.2125 22.7 27.2002C24 24.7202 24.02 24.7002 24.3 24.4402C24.5389 24.2068 24.8324 24.0369 25.1538 23.9461C25.4752 23.8553 25.8143 23.8464 26.14 23.9202L38.14 26.6602C38.4706 26.7369 38.7763 26.8965 39.0282 27.1239C39.2801 27.3514 39.47 27.6392 39.58 27.9602C39.7488 28.4349 39.8759 28.9235 39.96 29.4202C40.0405 29.9229 40.0806 30.4312 40.08 30.9402C40.0431 33.3698 39.0466 35.6861 37.3079 37.3835C35.5693 39.081 33.2297 40.0216 30.8 40.0002Z" fill="#231F20"/>
</svg>
