<svg width="30" height="30" viewBox="0 0 30 30" fill="none" xmlns="http://www.w3.org/2000/svg">
<g id="package">
<path id="Vector 83" d="M15 26.25V16.25M15 26.25L5.94 20.5875C5.48048 20.3003 5.25072 20.1567 5.12536 19.9305C5 19.7043 5 19.4334 5 18.8915V10M15 26.25L20 23.125L24.06 20.5875C24.5195 20.3003 24.7493 20.1567 24.8746 19.9305C25 19.7043 25 19.4334 25 18.8915V10M15 16.25L5 10M15 16.25L25 10M5 10L13.94 4.4125C14.4555 4.09033 14.7132 3.92925 15 3.92925C15.2868 3.92925 15.5445 4.09033 16.06 4.4125L25 10" stroke="white" stroke-width="2" stroke-linejoin="round"/>
<path id="Vector 84" d="M19 18.125C19 18.6773 19.4477 19.125 20 19.125C20.5523 19.125 21 18.6773 21 18.125H19ZM19.8746 13.1945L20.7493 12.7097L19.8746 13.1945ZM9.47 7.723L18.53 13.3855L19.59 11.6895L10.53 6.027L9.47 7.723ZM21 18.125V14.2335H19V18.125H21ZM18.53 13.3855C18.7757 13.5391 18.9004 13.6182 18.9843 13.6825C19.0512 13.7339 19.027 13.7279 19 13.6792L20.7493 12.7097C20.5969 12.4348 20.3951 12.244 20.201 12.0952C20.0238 11.9594 19.8038 11.8231 19.59 11.6895L18.53 13.3855ZM21 14.2335C21 13.9814 21.0011 13.7226 20.9798 13.5003C20.9565 13.2569 20.9016 12.9846 20.7493 12.7097L19 13.6792C18.973 13.6306 18.9808 13.6068 18.9889 13.6909C18.9989 13.7961 19 13.9437 19 14.2335H21Z" fill="white"/>
</g>
</svg>
