<svg width="122" height="23" viewBox="0 0 122 23" fill="none" xmlns="http://www.w3.org/2000/svg">
<g id="Group 1000006570">
<path id="Star" d="M11.5 3.7924L13.2317 7.81359L13.584 8.63164L14.4709 8.71389L18.8304 9.11822L15.5411 12.0078L14.872 12.5956L15.0678 13.4645L16.0304 17.7356L12.2658 15.5002L11.5 15.0455L10.7342 15.5002L6.96959 17.7356L7.93221 13.4645L8.12804 12.5956L7.45889 12.0078L4.16964 9.11822L8.52914 8.71389L9.41601 8.63164L9.7683 7.81359L11.5 3.7924Z" fill="#F1C644" stroke="#F1C644" stroke-width="3"/>
<path id="Star_2" d="M36.5 3.7924L38.2317 7.81359L38.584 8.63164L39.4709 8.71389L43.8304 9.11822L40.5411 12.0078L39.872 12.5956L40.0678 13.4645L41.0304 17.7356L37.2658 15.5002L36.5 15.0455L35.7342 15.5002L31.9696 17.7356L32.9322 13.4645L33.128 12.5956L32.4589 12.0078L29.1696 9.11822L33.5291 8.71389L34.416 8.63164L34.7683 7.81359L36.5 3.7924Z" fill="#F1C644" stroke="#F1C644" stroke-width="3"/>
<path id="Star_3" d="M61.5 3.7924L63.2317 7.81359L63.584 8.63164L64.4709 8.71389L68.8304 9.11822L65.5411 12.0078L64.872 12.5956L65.0678 13.4645L66.0304 17.7356L62.2658 15.5002L61.5 15.0455L60.7342 15.5002L56.9696 17.7356L57.9322 13.4645L58.128 12.5956L57.4589 12.0078L54.1696 9.11822L58.5291 8.71389L59.416 8.63164L59.7683 7.81359L61.5 3.7924Z" fill="#F1C644" stroke="#F1C644" stroke-width="3"/>
<path id="Star_4" d="M86 0L88.9742 7.2203L96.4616 7.9463L90.8123 13.1347L92.4656 20.8037L86 16.79L79.5344 20.8037L81.1877 13.1347L75.5384 7.9463L83.0258 7.2203L86 0Z" fill="#F1C644"/>
<path id="Star_5" d="M110.5 0L113.609 7.2203L121.437 7.9463L115.531 13.1347L117.26 20.8037L110.5 16.79L103.74 20.8037L105.469 13.1347L99.5628 7.9463L107.391 7.2203L110.5 0Z" fill="#D4D4D4"/>
</g>
</svg>
