<svg width="36" height="38" viewBox="0 0 36 38" fill="none" xmlns="http://www.w3.org/2000/svg">
<g id="Group_fill">
<ellipse id="Ellipse 46" cx="18" cy="14.205" rx="6" ry="6.31337" fill="white"/>
<ellipse id="Ellipse 47" cx="25.5" cy="14.205" rx="4.5" ry="4.73503" fill="white"/>
<ellipse id="Ellipse 48" cx="10.5" cy="14.205" rx="4.5" ry="4.73503" fill="white"/>
<path id="Subtract" fill-rule="evenodd" clip-rule="evenodd" d="M26.352 28.4103H30.3998C30.9895 28.4103 31.4437 27.906 31.3303 27.3274C30.9068 25.1651 29.5279 20.5186 25.4994 20.5186C24.1703 20.5186 23.1295 21.0244 22.3164 21.7799C24.578 23.3238 25.7474 26.0273 26.352 28.4103Z" fill="white"/>
<path id="Subtract_2" fill-rule="evenodd" clip-rule="evenodd" d="M13.6837 21.7799C12.8706 21.0244 11.8299 20.5186 10.5008 20.5186C6.47228 20.5186 5.09337 25.1651 4.66978 27.3274C4.55642 27.906 5.01062 28.4103 5.60028 28.4103H9.64808C10.2527 26.0273 11.4221 23.3238 13.6837 21.7799Z" fill="white"/>
<path id="Rectangle 4160" d="M18 22.0969C23.9927 22.0969 25.1971 28.1431 25.4391 30.5733C25.4939 31.1228 25.0523 31.567 24.5 31.567H11.5C10.9477 31.567 10.5061 31.1228 10.5609 30.5733C10.8029 28.1431 12.0073 22.0969 18 22.0969Z" fill="white"/>
</g>
</svg>
