<svg width="31" height="36" viewBox="0 0 31 36" fill="none" xmlns="http://www.w3.org/2000/svg">
<path id="Vector" d="M15.5 18C20.3922 18 24.3571 13.9711 24.3571 9C24.3571 4.02891 20.3922 0 15.5 0C10.6078 0 6.64286 4.02891 6.64286 9C6.64286 13.9711 10.6078 18 15.5 18ZM21.7 20.25H20.5444C19.0083 20.9672 17.2991 21.375 15.5 21.375C13.7009 21.375 11.9987 20.9672 10.4556 20.25H9.3C4.16562 20.25 0 24.4828 0 29.7V32.625C0 34.4883 1.48772 36 3.32143 36H27.6786C29.5123 36 31 34.4883 31 32.625V29.7C31 24.4828 26.8344 20.25 21.7 20.25Z" fill="black"/>
</svg>
