<svg width="41" height="36" viewBox="0 0 41 36" fill="none" xmlns="http://www.w3.org/2000/svg">
<path id="Vector" d="M36.4436 7.58583H6.32152C5.623 7.58583 5.05722 7.02005 5.05722 6.32152C5.05722 5.623 5.623 5.05722 6.32152 5.05722H36.6648C37.3634 5.05722 37.9291 4.49144 37.9291 3.79291C37.9291 1.69812 36.231 0 34.1362 0H5.05722C2.2639 0 0 2.2639 0 5.05722V30.3433C0 33.1366 2.2639 35.4005 5.05722 35.4005H36.4436C38.6577 35.4005 40.4578 33.6993 40.4578 31.6076V11.3787C40.4578 9.28711 38.6577 7.58583 36.4436 7.58583ZM32.8719 24.0218C31.4757 24.0218 30.3433 22.8895 30.3433 21.4932C30.3433 20.0969 31.4757 18.9646 32.8719 18.9646C34.2682 18.9646 35.4005 20.0969 35.4005 21.4932C35.4005 22.8895 34.2682 24.0218 32.8719 24.0218Z" fill="#06112E"/>
</svg>
